<?xml version="1.0" encoding="UTF-8"?>
<svg xmlns="http://www.w3.org/2000/svg" version="1.1" viewBox="0 0 800 800">
  <!-- Generator: Adobe Illustrator 29.2.1, SVG Export Plug-In . SVG Version: 2.1.0 Build 116)  -->
  <defs>
    <style>
      .st0 {
        fill: #fff;
      }

      .st1 {
        fill: #265787;
      }

      .st2 {
        fill: #ea7600;
      }

      .st3 {
        display: none;
      }
    </style>
  </defs>
  <g id="Layer_1" class="st3">
    <path d="M632.7,520c-8.7,12.3-20.6,21.9-34.5,27.6l-.5.2c-15.6,6.3-33.7,10-52.6,10s-2.8,0-4.1,0h.2-1c-14.7,0-29-1.5-42.8-4.3l1.4.2c-12-2.1-22.7-5.6-32.6-10.3l.8.3c-2.1-1-3.5-3.1-3.5-5.5s0-.3,0-.4h0s0-54.3,0-54.3h0c0-1.2.5-2.2,1.3-2.8h0c.3-.2.8-.3,1.2-.3s1.2.3,1.6.6h0c11.1,6.7,24.1,12,37.8,15.1l.9.2c11,3,23.6,4.7,36.6,4.7h.3,0c1,0,2.1,0,3.2,0,8.2,0,16-1.6,23.1-4.7l-.4.2c5-2.3,8.4-7.3,8.4-13.1h0c-.4-5.2-3.3-9.7-7.4-12.4h0c-8.8-5.8-18.9-10.8-29.6-14.5l-1-.3c-16.9-6.1-31.6-13.6-45-22.9l.6.4c-9.7-7-17.7-15.9-23.5-26.1l-.2-.4c-4.5-8.8-7.2-19.2-7.2-30.3s0-1.1,0-1.7h0c0-13.9,4-27,10.8-38l-.2.3c8-12.5,19.1-22.3,32.3-28.6l.5-.2c14.8-6.9,32.2-11,50.5-11s3.4,0,5,0h-.3c13.7,0,27.1,1,40.2,3l-1.5-.2c10,1.4,19.1,3.9,27.6,7.5l-.7-.3c1.4.5,2.5,1.5,3.1,2.8h0c.3,1.1.6,2.4.6,3.8h0v51h0c0,1.3-.6,2.4-1.6,3.1h0c-.8.3-1.8.5-2.8.5s-2-.2-2.9-.5h0c-8.7-4.6-18.7-8.3-29.3-10.5h-.7c-10.5-2.6-22.5-4.1-34.9-4.2h0c-.6,0-1.4,0-2.2,0-5.9,0-11.6.8-17.1,2.3h.4c-4,.8-7.4,3-9.6,6.1h0c-1.5,2.4-2.4,5.3-2.5,8.5h0c.2,3.1,1.3,6,3.2,8.2h0c2.9,3.4,6.4,6.2,10.4,8.3h.2c7.1,3.8,14.7,7.3,22.1,10.4,18.4,6.2,34.3,14,49,23.4l-.9-.5c10.3,6.5,18.6,15.3,24.5,25.6l.2.3c4.5,8.8,7.2,19.3,7.2,30.3s0,1.3,0,1.9h0c0,.3,0,.8,0,1.3,0,15-4.5,28.9-12.3,40.5l.2-.3h0ZM411.2,398.4c-12.5,17.3-29.6,30.5-49.5,37.9l-.7.3c-19.4,6.8-41.7,10.7-64.9,10.7s-3.8,0-5.6,0h.3c-7.5,0-12.5,0-15.6-.3s-7.5-.3-13.4-.3v100.3c0,.2,0,.3,0,.5,0,2-1.5,3.6-3.4,3.9h-60.6c-2.5,0-3.8-1.3-3.8-4.1V225.8c0-2.2.9-3.4,3.1-3.4,5.3,0,10.3,0,17.5-.3,7.5-.3,15.3-.3,23.7-.6s17.5-.3,27.2-.6,19.1-.3,28.4-.3c1.6,0,3.4,0,5.3,0,21.1,0,41.5,3.6,60.4,10.2l-1.3-.4c16.4,5.6,30.3,14.4,41.9,25.7h0c9.8,9.8,17.5,21.7,22.6,34.9l.2.7c4.5,12.1,7.1,26,7.1,40.6h0c0,1.4,0,3,0,4.6,0,23.1-7,44.5-19.1,62.3l.3-.4h0ZM642.1,34.5H157.8c-73.3,0-132.7,59.4-132.7,132.7h0v465.6h0c0,73.4,59.4,132.8,132.7,132.8h484.4c73.3,0,132.7-59.4,132.7-132.7h0V167.3h0c0-73.4-59.4-132.8-132.7-132.8h-.1ZM332.8,288.2c-9.9-4-21.4-6.3-33.4-6.3s-2.4,0-3.6,0h.2c-8.1,0-15.3,0-21.3.3-1.4,0-3-.1-4.7-.1-2.9,0-5.7.2-8.5.5h.3s0,104.9,0,104.9c4.4.3,8.4.6,12.2.6h16.7c12.8,0,25.1-2,36.6-5.9l-.8.2c10.3-3.1,19-8.9,25.6-16.5h0c6.1-8.1,9.8-18.2,9.8-29.2s0-2.1,0-3.2h0c0-.3,0-.9,0-1.4,0-9.7-2.7-18.8-7.3-26.5v.2c-5.1-8-12.6-14.2-21.4-17.7h-.3c0,0,0-.1,0-.1Z"/>
  </g>
  <g id="Layer_2">
    <g>
      <path class="st0" d="M313.8,435.1c2.9-51.9,28.3-97.6,66.7-130,37.6-31.8,88.2-51.3,143.4-51.3s105.8,19.5,143.4,51.3c38.3,32.4,63.7,78.1,66.7,130,2.9,53.3-18.5,102.8-56.1,139.6-38.3,37.3-92.9,60.8-153.9,60.8s-115.7-23.4-154-60.8c-37.6-36.7-59-86.2-56.1-139.5Z"/>
      <path class="st1" d="M416.1,439.7c1.5-26.6,14.5-50.1,34.2-66.7,19.3-16.3,45.3-26.3,73.6-26.3s54.3,10,73.6,26.3c19.7,16.6,32.7,40.1,34.2,66.7,1.5,27.4-9.5,52.8-28.8,71.6-19.7,19.2-47.6,31.2-79,31.2s-59.4-12-79-31.2c-19.3-18.8-30.3-44.3-28.8-71.6Z"/>
      <path class="st2" d="M245,494.4c.2,10.4,3.5,30.7,8.5,46.6,10.5,33.5,28.3,64.6,53.1,91.9,25.4,28.1,56.7,50.7,92.9,66.7,38,16.8,79.2,25.4,122,25.3,42.7,0,83.9-8.8,121.9-25.8,36.2-16.2,67.4-38.9,92.8-67,24.8-27.5,42.5-58.5,53.1-92.1,5.3-16.9,8.6-34.1,10-51.4,1.3-17,.8-34-1.7-51.1-4.7-33.2-16.2-64.3-33.9-92.6-16.2-26.1-37-48.9-61.7-68.1h0s-249.9-191.9-249.9-191.9c-.2-.2-.4-.4-.6-.5-16.4-12.6-44-12.5-62,0-18.2,12.8-20.3,33.9-4.1,47.2h0c0,0,104.2,84.8,104.2,84.8l-317.7.3h-.4c-26.3,0-51.5,17.3-56.5,39-5.1,22.2,12.7,40.6,40,40.7h0c0,0,161-.2,161-.2L28.6,516.9c-.4.3-.8.6-1.1.8-27.1,20.8-35.9,55.3-18.8,77.1,17.3,22.2,54.2,22.3,81.6.1l156.8-128.3s-2.3,17.3-2.1,27.7ZM648,552.4c-32.3,32.9-77.6,51.6-126.5,51.7-49,0-94.3-18.4-126.6-51.3-15.8-16-27.4-34.4-34.5-54.1-7-19.3-9.7-39.8-7.9-60.4,1.7-20.2,7.7-39.5,17.3-56.9,9.4-17.1,22.4-32.6,38.4-45.7,31.4-25.6,71.4-39.5,113.2-39.5,41.9,0,81.8,13.7,113.3,39.2,16,13,29,28.5,38.4,45.6,9.6,17.4,15.6,36.6,17.4,56.9,1.8,20.6-.9,41.1-8,60.4-7.2,19.7-18.7,38.1-34.5,54.2Z"/>
    </g>
  </g>
</svg>