<svg xmlns="http://www.w3.org/2000/svg" version="1.1" xmlns:xlink="http://www.w3.org/1999/xlink" xmlns:svgjs="http://svgjs.dev/svgjs" viewBox="0 0 800 400"><path d="M88.53045654296875,255.7347869873047C100.3360139465332,254.48478729248046,134.27867431640624,246.83693733215333,164.69534301757812,247.67027282714844C195.11201171875,248.50360832214355,249.7670278930664,259.30558753967284,284.76702880859375,261.11114501953125C319.7670297241211,262.91670249938966,362.58513122558594,260.9856993865967,390.5018005371094,259.31903076171875C418.4184698486328,257.6523621368408,444.04123977661135,251.46955741882323,464.87457275390625,250.3584442138672C485.70790573120115,249.24733100891115,506.85483978271486,251.03944526672365,524.910400390625,252.1505584716797C542.9659609985351,253.26167167663573,564.9731661987305,262.2491375732422,581.362060546875,257.52691650390625C597.7509548950195,252.8046954345703,616.478539428711,227.79573043823243,630.6452026367188,221.6846160888672C644.8118658447265,215.57350173950195,660.3987796020508,214.48926208496093,672.7598876953125,218.10037231445312C685.1209957885742,221.71148254394532,700.9498355102539,235.81543228149414,710.394287109375,244.9821014404297C719.8387387084961,254.14877059936524,730.0807138061523,272.2401721954346,733.6918334960938,277.24017333984375" fill="none" stroke-width="13" stroke="url(&quot;#SvgjsLinearGradient1001&quot;)" stroke-linecap="round" transform="matrix(-1,0,0,1,811.1111450195312,-46.51564025878906)" stroke-dasharray="83 0" stroke-opacity="1"></path><defs><linearGradient id="SvgjsLinearGradient1001"><stop stop-color="hsl(162, 100%, 58%)" offset="0"></stop><stop stop-color="hsl(270, 73%, 53%)" offset="1"></stop></linearGradient></defs></svg>