<svg xmlns="http://www.w3.org/2000/svg" version="1.1" xmlns:xlink="http://www.w3.org/1999/xlink" xmlns:svgjs="http://svgjs.dev/svgjs" viewBox="0 0 800 400"><path d="M176.34408569335938,167.0251007080078C182.32377555847168,165.53017873128255,208.6798119608561,158.3662019856771,222.93907165527344,155.37635803222656C237.19833134969076,152.38651407877603,274.00089653015135,146.02749532063802,287.4552001953125,143.7276153564453C300.90950386047365,141.4277353922526,316.9683617655436,138.37516743977864,327.7778015136719,137.45521545410156C338.58724126180016,136.5352634684245,353.97552118937176,136.2141763305664,371.6846008300781,136.5591583251953C389.3936804707845,136.90414031982422,448.52152231852216,139.22343485514324,465.7706298828125,140.1433868408203C483.01973744710284,141.0633388264974,491.7189735921224,142.57767537434896,506.0932312011719,143.7276153564453C520.4674888102213,144.87755533854167,563.1735903422037,148.18400614420574,577.77783203125,149.1039581298828C592.3820737202963,150.0239101155599,607.3581712849935,151.24105438232422,619.8925170898438,150.8960723876953C632.426862894694,150.5510903930664,665.6735692342122,148.8306607055664,675.4480590820312,146.41578674316406C685.2225489298503,144.00091278076172,692.4925591023763,134.72373561859132,696.057373046875,132.07887268066406C699.6221869913737,129.4340097427368,702.3058780924479,126.61142411549886,703.225830078125,125.80646514892578" fill="none" stroke-width="23" stroke="url(&quot;#SvgjsLinearGradient1002&quot;)" stroke-linecap="round" transform="matrix(1.047375,0,0,1.047375,-60.619754283905024,46.6477693552971)"></path><defs><linearGradient id="SvgjsLinearGradient1002"><stop stop-color="hsl(80, 95%, 52%)" offset="0"></stop><stop stop-color="hsl(180, 95%, 52%)" offset="1"></stop></linearGradient></defs></svg>